<svg xmlns="http://www.w3.org/2000/svg" width="16" height="12" viewBox="0 0 16 12">
  <defs>
    <style>
      .cls-1 {
        fill: #c8cce2;
      }
    </style>
  </defs>
  <g id="Card" transform="translate(-1 -3)">
    <path id="Path_2651" data-name="Path 2651" class="cls-1" d="M17,5.75A2.752,2.752,0,0,0,14.25,3H3.75A2.752,2.752,0,0,0,1,5.75V6.5H17Z"/>
    <path id="Path_2652" data-name="Path 2652" class="cls-1" d="M1,12.25A2.752,2.752,0,0,0,3.75,15h10.5A2.752,2.752,0,0,0,17,12.25V8H1ZM12.75,10.5h1a.75.75,0,0,1,0,1.5h-1a.75.75,0,0,1,0-1.5Zm-8.5,0h3a.75.75,0,0,1,0,1.5h-3a.75.75,0,0,1,0-1.5Z"/>
  </g>
</svg>
